# xmcd
#
# Track frame offsets: 
#        150
#        14791
#        29136
#        53367
#        77034
#        87862
#        101823
#        115611
#        142002
#
# Disc length: 2060 seconds
#
# Revision: 0
# Processed by: cddbd v1.5.2PL0 Copyright (c) Steve Scherf et al.
# Submitted via: ExactAudioCopy v1.0b1
#
DISCID=73080a09
DTITLE=Marlon Williams - Marlon Williams
DYEAR=2015
DGENRE=Country
TTITLE0=Hello Miss Lonesome
TTITLE1=After All
TTITLE2=Dark Child
TTITLE3=I'm Lost Without You
TTITLE4=Lonely Side Of Her
TTITLE5=Silent Passage
TTITLE6=Strange Things
TTITLE7=When I Was A Young Girl
TTITLE8=Everyone's Got Something To Say
EXTD=
EXTT0=
EXTT1=
EXTT2=
EXTT3=
EXTT4=
EXTT5=
EXTT6=
EXTT7=
EXTT8=
PLAYORDER=
